<svg width="122" height="123" viewBox="0 0 122 123" fill="none" xmlns="http://www.w3.org/2000/svg">
<path d="M61 0C27.3642 0 0 27.5885 0 61.5C0 95.4115 27.3642 123 61 123C94.6358 123 122 95.4115 122 61.5C122 27.5885 94.6358 0 61 0ZM61 114.214C32.1687 114.214 8.71418 90.5676 8.71418 61.5C8.71418 32.4324 32.1687 8.78561 61 8.78561C89.8313 8.78561 113.286 32.4324 113.286 61.5C113.286 90.5676 89.8313 114.214 61 114.214Z" fill="#A7A7A7"/>
<path d="M61 32.2142C58.5934 32.2142 56.6428 34.1808 56.6428 36.6072V86.3928C56.6428 88.8192 58.5934 90.7858 61 90.7858C63.4067 90.7858 65.3572 88.8192 65.3572 86.3928V36.6072C65.3572 34.1808 63.4067 32.2142 61 32.2142Z" fill="#A7A7A7"/>
<path d="M85.6904 57.1071H36.3095C33.9028 57.1071 31.9523 59.0736 31.9523 61.5C31.9523 63.9263 33.9028 65.8929 36.3095 65.8929H85.6904C88.0971 65.8929 90.0476 63.9263 90.0476 61.5C90.0476 59.0736 88.0971 57.1071 85.6904 57.1071Z" fill="#A7A7A7"/>
</svg>
