<svg width="176" height="176" viewBox="0 0 176 176" fill="none" xmlns="http://www.w3.org/2000/svg">
<g clip-path="url(#clip0)">
<path d="M174.828 33.1718L142.828 1.17188C142.078 0.421875 141.063 0 140 0H16.0001C7.17976 0 0 7.17563 0 16.0001V160C0 168.824 7.17976 176 16.0001 176H160C168.821 176 176 168.825 176 160V36C176 34.9376 175.578 33.9218 174.828 33.1718ZM40.0002 7.99988H128V55.9999C128 60.4099 124.414 63.9998 120 63.9998H48C43.5859 63.9998 40.0002 60.4099 40.0002 55.9999V7.99988ZM144 168H31.9999V96.0001H144V168ZM168 160C168 164.41 164.414 168 160 168H152V91.9999C152 89.7889 150.211 87.9998 148 87.9998H28.0001C25.7891 87.9998 24 89.7889 24 91.9999V168H16.0001C11.586 168 8.00026 164.41 8.00026 160V16.0001C8.00026 11.5901 11.5864 8.00026 16.0001 8.00026H32.0003V56.0003C31.9999 64.8244 39.1797 72.0001 48 72.0001H120C128.82 72.0001 136 64.8244 136 55.9999V7.99988H138.344L168 37.6564V160Z" fill="#18A0FB"/>
<path d="M100 55.9999H116C118.211 55.9999 120 54.2108 120 51.9998V19.9999C120 17.7889 118.211 15.9998 116 15.9998H100C97.7891 15.9998 96 17.7889 96 19.9999V51.9998C96 54.2108 97.7891 55.9999 100 55.9999ZM104 24H112V48H104V24Z" fill="#18A0FB"/>
</g>
<defs>
<clipPath id="clip0">
<rect width="176" height="176" fill="white"/>
</clipPath>
</defs>
</svg>
