<svg width="169" height="175" viewBox="0 0 169 175" fill="none" xmlns="http://www.w3.org/2000/svg">
<path d="M98.4844 151.562H92.8906V123.694C92.8906 122.94 92.596 122.216 92.0714 121.683C91.5469 121.15 90.8355 120.85 90.0938 120.85C89.352 120.85 88.6406 121.15 88.1161 121.683C87.5915 122.216 87.2969 122.94 87.2969 123.694V151.562H14.5781V94.6875H37.8481C38.5899 94.6875 39.3013 94.3879 39.8258 93.8546C40.3503 93.3213 40.645 92.598 40.645 91.8438C40.645 91.0895 40.3503 90.3662 39.8258 89.8329C39.3013 89.2996 38.5899 89 37.8481 89H11.7812C11.0395 89 10.3281 89.2996 9.80356 89.8329C9.27905 90.3662 8.98438 91.0895 8.98438 91.8438V151.562H3.39062C2.64885 151.562 1.93745 151.862 1.41294 152.395C0.88842 152.929 0.59375 153.652 0.59375 154.406V160.094C0.59375 163.865 2.0671 167.481 4.68968 170.148C7.31226 172.814 10.8692 174.312 14.5781 174.312H87.2969C91.0058 174.312 94.5627 172.814 97.1853 170.148C99.8079 167.481 101.281 163.865 101.281 160.094V154.406C101.281 153.652 100.987 152.929 100.462 152.395C99.9376 151.862 99.2262 151.562 98.4844 151.562ZM95.6875 160.094C95.6875 162.356 94.8035 164.526 93.2299 166.126C91.6564 167.726 89.5222 168.625 87.2969 168.625H81.7031V165.781C81.7031 165.027 81.4085 164.304 80.8839 163.77C80.3594 163.237 79.648 162.938 78.9062 162.938C78.1645 162.938 77.4531 163.237 76.9286 163.77C76.404 164.304 76.1094 165.027 76.1094 165.781V168.625H25.7656V165.781C25.7656 165.027 25.471 164.304 24.9464 163.77C24.4219 163.237 23.7105 162.938 22.9688 162.938C22.227 162.938 21.5156 163.237 20.9911 163.77C20.4665 164.304 20.1719 165.027 20.1719 165.781V168.625H14.5781C12.3528 168.625 10.2186 167.726 8.64506 166.126C7.07151 164.526 6.1875 162.356 6.1875 160.094V157.25H95.6875V160.094Z" fill="#18A0FB"/>
<path d="M146.031 20.75H151.625C152.367 20.75 153.078 20.4504 153.603 19.9171C154.127 19.3838 154.422 18.6605 154.422 17.9063C154.422 17.152 154.127 16.4287 153.603 15.8954C153.078 15.3621 152.367 15.0625 151.625 15.0625H146.031C143.806 15.0625 141.672 15.9613 140.098 17.5612C138.525 19.1612 137.641 21.3311 137.641 23.5938V26.4375H134.844C134.102 26.4375 133.391 26.7371 132.866 27.2704C132.342 27.8037 132.047 28.527 132.047 29.2813C132.047 30.0355 132.342 30.7588 132.866 31.2921C133.391 31.8254 134.102 32.125 134.844 32.125H137.641V40.6563C137.641 41.4105 137.935 42.1338 138.46 42.6671C138.984 43.2004 139.696 43.5 140.438 43.5C141.179 43.5 141.891 43.2004 142.415 42.6671C142.94 42.1338 143.234 41.4105 143.234 40.6563V32.125H146.031C146.773 32.125 147.484 31.8254 148.009 31.2921C148.533 30.7588 148.828 30.0355 148.828 29.2813C148.828 28.527 148.533 27.8037 148.009 27.2704C147.484 26.7371 146.773 26.4375 146.031 26.4375H143.234V23.5938C143.234 22.8395 143.529 22.1162 144.054 21.5829C144.578 21.0496 145.289 20.75 146.031 20.75Z" fill="#18A0FB"/>
<path d="M160.016 3.6875H126.453C124.228 3.6875 122.094 4.58633 120.52 6.18625C118.947 7.78617 118.062 9.95612 118.062 12.2188V17.9062C118.062 18.6605 118.357 19.3838 118.882 19.9171C119.406 20.4504 120.118 20.75 120.859 20.75C121.601 20.75 122.313 20.4504 122.837 19.9171C123.362 19.3838 123.656 18.6605 123.656 17.9062V12.2188C123.656 11.4645 123.951 10.7412 124.475 10.2079C125 9.67461 125.711 9.375 126.453 9.375H160.016C160.757 9.375 161.469 9.67461 161.993 10.2079C162.518 10.7412 162.812 11.4645 162.812 12.2188V46.3438C162.812 47.098 162.518 47.8213 161.993 48.3546C161.469 48.8879 160.757 49.1875 160.016 49.1875H126.453C125.711 49.1875 125 48.8879 124.475 48.3546C123.951 47.8213 123.656 47.098 123.656 46.3438V29.2812C123.656 28.527 123.362 27.8037 122.837 27.2704C122.313 26.7371 121.601 26.4375 120.859 26.4375C120.118 26.4375 119.406 26.7371 118.882 27.2704C118.357 27.8037 118.062 28.527 118.062 29.2812V46.3438C118.062 48.6064 118.947 50.7763 120.52 52.3763C122.094 53.9762 124.228 54.875 126.453 54.875H160.016C162.241 54.875 164.375 53.9762 165.949 52.3763C167.522 50.7763 168.406 48.6064 168.406 46.3438V12.2188C168.406 9.95612 167.522 7.78617 165.949 6.18625C164.375 4.58633 162.241 3.6875 160.016 3.6875Z" fill="#18A0FB"/>
<path d="M132.047 117.438C132.047 119.687 132.703 121.887 133.932 123.757C135.162 125.628 136.909 127.086 138.953 127.947C140.997 128.808 143.247 129.033 145.417 128.594C147.587 128.155 149.581 127.072 151.145 125.481C152.71 123.89 153.775 121.863 154.207 119.657C154.639 117.45 154.417 115.163 153.57 113.084C152.724 111.006 151.29 109.229 149.45 107.98C147.61 106.73 145.447 106.062 143.234 106.062C140.267 106.062 137.422 107.261 135.324 109.394C133.226 111.527 132.047 114.421 132.047 117.438ZM148.828 117.438C148.828 118.562 148.5 119.662 147.885 120.597C147.271 121.533 146.397 122.262 145.375 122.692C144.353 123.123 143.228 123.235 142.143 123.016C141.058 122.796 140.061 122.255 139.279 121.459C138.497 120.664 137.964 119.65 137.748 118.547C137.532 117.444 137.643 116.3 138.066 115.261C138.49 114.222 139.207 113.333 140.127 112.709C141.047 112.084 142.128 111.75 143.234 111.75C144.718 111.75 146.141 112.349 147.19 113.416C148.239 114.482 148.828 115.929 148.828 117.438Z" fill="#18A0FB"/>
<path d="M160.016 91.8438H126.453C124.228 91.8438 122.094 92.7426 120.52 94.3425C118.947 95.9424 118.062 98.1124 118.062 100.375V134.5C118.062 136.763 118.947 138.933 120.52 140.533C122.094 142.132 124.228 143.031 126.453 143.031H160.016C162.241 143.031 164.375 142.132 165.949 140.533C167.522 138.933 168.406 136.763 168.406 134.5V128.812C168.406 128.058 168.112 127.335 167.587 126.802C167.063 126.268 166.351 125.969 165.609 125.969C164.868 125.969 164.156 126.268 163.632 126.802C163.107 127.335 162.812 128.058 162.812 128.812V134.5C162.812 135.254 162.518 135.978 161.993 136.511C161.469 137.044 160.757 137.344 160.016 137.344H126.453C125.711 137.344 125 137.044 124.475 136.511C123.951 135.978 123.656 135.254 123.656 134.5V100.375C123.656 99.6208 123.951 98.8975 124.475 98.3642C125 97.8309 125.711 97.5312 126.453 97.5312H160.016C160.757 97.5312 161.469 97.8309 161.993 98.3642C162.518 98.8975 162.812 99.6208 162.812 100.375V117.438C162.812 118.192 163.107 118.915 163.632 119.448C164.156 119.982 164.868 120.281 165.609 120.281C166.351 120.281 167.063 119.982 167.587 119.448C168.112 118.915 168.406 118.192 168.406 117.438V100.375C168.406 98.1124 167.522 95.9424 165.949 94.3425C164.375 92.7426 162.241 91.8438 160.016 91.8438Z" fill="#18A0FB"/>
<path d="M63.4395 37.3859C63.8846 37.6664 64.3982 37.8142 64.9219 37.8124C65.3597 37.8098 65.7908 37.7026 66.1805 37.4996L82.9617 28.9684C83.4199 28.7297 83.8043 28.3672 84.0728 27.9206C84.3413 27.4741 84.4833 26.9608 84.4833 26.4374C84.4833 25.9141 84.3413 25.4008 84.0728 24.9543C83.8043 24.5077 83.4199 24.1451 82.9617 23.9065L66.1805 15.3753C65.7547 15.1571 65.2812 15.0532 64.8048 15.0735C64.3285 15.0938 63.8651 15.2376 63.4588 15.4912C63.0525 15.7448 62.7166 16.0997 62.4832 16.5224C62.2497 16.9451 62.1264 17.4214 62.125 17.9062V34.9687C62.1241 35.452 62.2443 35.9275 62.4743 36.3505C62.7043 36.7734 63.0365 37.1297 63.4395 37.3859ZM67.7188 22.5131L75.4381 26.4374L67.7188 30.3618V22.5131Z" fill="#18A0FB"/>
<path d="M70.5156 52.0313C75.4941 52.0313 80.3609 50.5302 84.5004 47.7179C88.6399 44.9057 91.8662 40.9085 93.7714 36.2318C95.6766 31.5552 96.1751 26.4091 95.2038 21.4444C94.2326 16.4797 91.8352 11.9193 88.3148 8.34C84.7945 4.76065 80.3093 2.32308 75.4264 1.33554C70.5435 0.347998 65.4823 0.854839 60.8828 2.79197C56.2832 4.7291 52.3519 8.00952 49.586 12.2184C46.8201 16.4273 45.3438 21.3755 45.3438 26.4375C45.3438 33.2254 47.9958 39.7353 52.7164 44.535C57.4371 49.3348 63.8396 52.0313 70.5156 52.0313ZM70.5156 6.53126C74.3878 6.53126 78.173 7.69874 81.3926 9.88607C84.6123 12.0734 87.1216 15.1823 88.6034 18.8197C90.0853 22.4571 90.473 26.4596 89.7176 30.321C88.9621 34.1825 87.0975 37.7294 84.3594 40.5134C81.6214 43.2973 78.1329 45.1932 74.3351 45.9613C70.5373 46.7294 66.6008 46.3351 63.0234 44.8285C59.446 43.3218 56.3883 40.7704 54.237 37.4968C52.0857 34.2233 50.9375 30.3746 50.9375 26.4375C50.9375 21.158 53.0002 16.0948 56.6718 12.3617C60.3434 8.62852 65.3232 6.53126 70.5156 6.53126Z" fill="#18A0FB"/>
<path d="M98.4844 63.4063C98.9186 63.4063 99.3468 63.3035 99.7352 63.106C100.124 62.9086 100.461 62.6219 100.722 62.2688L109.112 50.8938C109.558 50.2904 109.749 49.532 109.644 48.7853C109.539 48.0387 109.147 47.365 108.553 46.9125C107.96 46.46 107.214 46.2657 106.479 46.3723C105.745 46.479 105.083 46.8779 104.638 47.4813L96.2469 58.8563C95.8018 59.4596 95.6107 60.2181 95.7156 60.9647C95.8205 61.7113 96.2128 62.385 96.8063 62.8375C97.2904 63.2067 97.8792 63.4063 98.4844 63.4063Z" fill="#18A0FB"/>
<path d="M104.638 73.6438C104.898 73.9969 105.236 74.2836 105.624 74.481C106.013 74.6785 106.441 74.7813 106.875 74.7813C107.48 74.7813 108.069 74.5817 108.553 74.2125L119.741 65.6813C120.334 65.2287 120.726 64.5551 120.831 63.8084C120.936 63.0618 120.745 62.3034 120.3 61.7C119.855 61.0966 119.192 60.6978 118.458 60.5911C117.724 60.4844 116.978 60.6787 116.384 61.1313L105.197 69.6625C104.603 70.115 104.211 70.7887 104.106 71.5353C104.001 72.282 104.192 73.0404 104.638 73.6438Z" fill="#18A0FB"/>
<path d="M132.047 79.9C131.98 79.523 131.84 79.1636 131.633 78.8432C131.427 78.5228 131.159 78.2482 130.845 78.0357C130.532 77.8233 130.179 77.6774 129.809 77.6068C129.439 77.5362 129.058 77.5424 128.691 77.625L114.706 80.4688C114.339 80.5061 113.982 80.6167 113.657 80.7941C113.332 80.9715 113.044 81.2123 112.81 81.5028C112.338 82.0894 112.115 82.8427 112.189 83.5969C112.263 84.3511 112.629 85.0445 113.206 85.5245C113.783 86.0044 114.524 86.2317 115.266 86.1563H115.825L129.809 83.3125C130.18 83.245 130.534 83.1019 130.849 82.892C131.164 82.682 131.434 82.4095 131.643 82.0908C131.852 81.7722 131.995 81.4138 132.065 81.0374C132.134 80.6609 132.128 80.274 132.047 79.9Z" fill="#18A0FB"/>
<path d="M3.39062 80.4688H36.9531C37.6949 80.4688 38.4063 80.1691 38.9308 79.6358C39.4553 79.1025 39.75 78.3792 39.75 77.625V32.125C39.75 31.3708 39.4553 30.6475 38.9308 30.1142C38.4063 29.5809 37.6949 29.2812 36.9531 29.2812H3.39062C2.64885 29.2812 1.93745 29.5809 1.41294 30.1142C0.88842 30.6475 0.59375 31.3708 0.59375 32.125V77.625C0.59375 78.3792 0.88842 79.1025 1.41294 79.6358C1.93745 80.1691 2.64885 80.4688 3.39062 80.4688ZM6.1875 34.9688H34.1562V74.7812H6.1875V34.9688Z" fill="#18A0FB"/>
<path d="M25.7656 40.6562H20.1719C19.4301 40.6562 18.7187 40.9559 18.1942 41.4892C17.6697 42.0225 17.375 42.7458 17.375 43.5C17.375 44.2542 17.6697 44.9775 18.1942 45.5108C18.7187 46.0441 19.4301 46.3438 20.1719 46.3438H25.7656C26.5074 46.3438 27.2188 46.0441 27.7433 45.5108C28.2678 44.9775 28.5625 44.2542 28.5625 43.5C28.5625 42.7458 28.2678 42.0225 27.7433 41.4892C27.2188 40.9559 26.5074 40.6562 25.7656 40.6562Z" fill="#18A0FB"/>
<path d="M25.7656 52.0312H14.5781C13.8363 52.0312 13.125 52.3309 12.6004 52.8642C12.0759 53.3975 11.7812 54.1208 11.7812 54.875C11.7812 55.6292 12.0759 56.3525 12.6004 56.8858C13.125 57.4191 13.8363 57.7188 14.5781 57.7188H25.7656C26.5074 57.7188 27.2188 57.4191 27.7433 56.8858C28.2678 56.3525 28.5625 55.6292 28.5625 54.875C28.5625 54.1208 28.2678 53.3975 27.7433 52.8642C27.2188 52.3309 26.5074 52.0312 25.7656 52.0312Z" fill="#18A0FB"/>
<path d="M25.7656 63.4062H14.5781C13.8363 63.4062 13.125 63.7059 12.6004 64.2392C12.0759 64.7725 11.7812 65.4958 11.7812 66.25C11.7812 67.0042 12.0759 67.7275 12.6004 68.2608C13.125 68.7941 13.8363 69.0938 14.5781 69.0938H25.7656C26.5074 69.0938 27.2188 68.7941 27.7433 68.2608C28.2678 67.7275 28.5625 67.0042 28.5625 66.25C28.5625 65.4958 28.2678 64.7725 27.7433 64.2392C27.2188 63.7059 26.5074 63.4062 25.7656 63.4062Z" fill="#18A0FB"/>
<path d="M96.0232 79.6157C95.8395 79.2908 95.5948 79.0058 95.3028 78.7771C95.0109 78.5484 94.6775 78.3804 94.3217 78.2827C93.9659 78.185 93.5946 78.1595 93.2291 78.2077C92.8636 78.2558 92.511 78.3767 92.1915 78.5635C91.8719 78.7502 91.5917 78.9991 91.3667 79.2959C91.1418 79.5928 90.9766 79.9317 90.8805 80.2935C90.7844 80.6553 90.7593 81.0328 90.8067 81.4044C90.8541 81.776 90.973 82.1345 91.1566 82.4594L103.491 104.157L58.7408 121.22C58.7408 121.22 58.7408 121.22 58.5451 121.22H58.3213L51.0494 125.485L46.2108 128.329C45.5738 128.704 44.8704 128.946 44.1409 129.044C43.4114 129.142 42.6702 129.092 41.9596 128.898C40.5321 128.506 39.3153 127.555 38.5754 126.253L32.9816 116.414C32.3235 115.126 32.1742 113.632 32.5641 112.236C32.9541 110.841 33.8538 109.65 35.0793 108.906L44.7565 103.219L51.7487 115.532C51.9951 115.966 52.3499 116.326 52.7772 116.576C53.2045 116.826 53.6891 116.956 54.1819 116.954C54.6738 116.956 55.1575 116.826 55.5843 116.577C56.011 116.329 56.3657 115.97 56.6125 115.537C56.8592 115.104 56.9895 114.613 56.9899 114.113C56.9904 113.613 56.8612 113.122 56.6152 112.688L49.3993 100.005L84.5001 70.5725L85.6468 72.5916C85.8304 72.9165 86.0752 73.2014 86.3672 73.4301C86.6591 73.6588 86.9925 73.8268 87.3483 73.9246C87.7041 74.0223 88.0754 74.0477 88.4409 73.9996C88.8064 73.9514 89.159 73.8305 89.4785 73.6438C89.798 73.4571 90.0783 73.2082 90.3032 72.9113C90.5282 72.6145 90.6934 72.2755 90.7895 71.9137C90.8856 71.5519 90.9107 71.1745 90.8633 70.8028C90.8159 70.4312 90.697 70.0727 90.5134 69.7478L87.7165 64.8281C87.5115 64.4719 87.2327 64.1652 86.8995 63.9295C86.5662 63.6938 86.1865 63.5346 85.7866 63.4631C85.3847 63.3861 84.971 63.3997 84.5747 63.5028C84.1784 63.606 83.8093 63.7963 83.4932 64.0603L44.3369 96.8772L32.4222 103.873C30.2841 105.139 28.6191 107.09 27.6879 109.421C26.7567 111.752 26.6119 114.331 27.276 116.755L24.4791 118.376C23.038 119.217 21.8752 120.475 21.1379 121.989C20.4006 123.503 20.1222 125.206 20.3379 126.882C20.5536 128.557 21.2537 130.129 22.3495 131.4C23.4453 132.67 24.8873 133.581 26.4929 134.017C27.2046 134.208 27.9381 134.304 28.6744 134.301C30.1458 134.295 31.5907 133.903 32.8697 133.163L35.6666 131.543C37.0102 132.954 38.6998 133.975 40.5612 134.5C41.5169 134.772 42.5055 134.906 43.4979 134.898C45.4638 134.903 47.3951 134.373 49.0916 133.363L51.5249 131.941L57.1187 141.808C58.2303 143.763 60.0585 145.189 62.2026 145.776C64.3468 146.362 66.6321 146.06 68.5579 144.937C69.5133 144.377 70.3508 143.631 71.0226 142.742C71.6944 141.853 72.1872 140.838 72.473 139.755C72.7587 138.672 72.8317 137.543 72.6878 136.431C72.5439 135.32 72.186 134.248 71.6344 133.277L66.5441 124.263L108.497 108.252C108.878 108.107 109.222 107.879 109.507 107.584C109.792 107.289 110.011 106.935 110.147 106.546C110.284 106.161 110.337 105.751 110.303 105.344C110.269 104.937 110.149 104.542 109.952 104.186L96.0232 79.6157ZM29.961 128.215C29.6425 128.403 29.2908 128.524 28.926 128.573C28.5613 128.622 28.1907 128.597 27.8354 128.5C27.1188 128.31 26.5053 127.84 26.1293 127.192C25.9451 126.868 25.8257 126.51 25.7777 126.139C25.7297 125.768 25.7541 125.392 25.8496 125.03C25.9451 124.667 26.1104 124.327 26.336 124.029C26.5617 123.731 26.8431 123.482 27.1641 123.296L29.5974 121.874L32.3943 126.793L29.961 128.215ZM66.7679 136.178C66.952 136.502 67.0715 136.859 67.1195 137.23C67.1675 137.601 67.143 137.978 67.0476 138.339C66.8481 139.062 66.3756 139.675 65.733 140.045C65.0942 140.418 64.3364 140.52 63.6242 140.329C62.912 140.137 62.3029 139.667 61.9293 139.022L56.3355 129.154L60.9783 126.452H61.2021L66.7679 136.178Z" fill="#18A0FB"/>
</svg>
