<svg width="186" height="45" viewBox="0 0 186 45" fill="none" xmlns="http://www.w3.org/2000/svg">
<path d="M5.67735 29.6211C5.80755 30.9232 5.87266 32.5508 5.87266 34.5039V42.5703C5.87266 43.5339 5.48854 44.0156 4.72031 44.0156H2.29844C1.47813 44.0156 1.06797 43.5078 1.06797 42.4922V20.8711C1.06797 17.2122 0.872658 14.543 0.482033 12.8633C0.44297 12.694 0.423439 12.4596 0.423439 12.1602C0.423439 11.8607 0.540627 11.5872 0.775002 11.3398C1.0224 11.0924 1.3349 10.9688 1.7125 10.9688H2.90391C3.62005 10.9688 4.12787 11.2812 4.42735 11.9062C4.77891 12.6354 5.04583 13.5794 5.22813 14.7383C6.13958 13.1497 7.38307 11.9909 8.9586 11.2617C10.0784 10.7409 11.3479 10.4805 12.7672 10.4805C14.1995 10.4805 15.4755 10.7604 16.5953 11.3203C17.7151 11.8672 18.6461 12.6224 19.3883 13.5859C20.8596 15.5 21.5953 18.0651 21.5953 21.2812C21.5953 24.6406 20.7685 27.4792 19.1148 29.7969C17.3701 32.2578 15.0849 33.4883 12.2594 33.4883C9.31667 33.4883 7.12266 32.1992 5.67735 29.6211ZM5.42344 22.6875C5.42344 24.5625 6.04844 26.1771 7.29844 27.5312C8.48333 28.8073 9.82448 29.4453 11.3219 29.4453C13.2099 29.4453 14.6096 28.5273 15.5211 26.6914C16.2503 25.2331 16.6148 23.3906 16.6148 21.1641C16.6148 19.3672 16.1852 17.8438 15.3258 16.5938C14.4013 15.2396 13.1708 14.5625 11.6344 14.5625C9.90261 14.5625 8.42474 15.2786 7.20078 16.7109C6.01589 18.1172 5.42344 19.7513 5.42344 21.6133V22.6875ZM44.5891 31.9648C44.5891 32.6549 44.2505 33 43.5734 33H41.6789C41.1711 33 40.8651 32.9023 40.7609 32.707C40.6568 32.4987 40.5982 32.3164 40.5852 32.1602C40.5721 31.9909 40.5461 31.7891 40.507 31.5547C40.4289 30.9167 40.3182 30.2266 40.175 29.4844C39.1594 31.3464 37.5643 32.5768 35.3898 33.1758C34.6216 33.3841 33.7753 33.4883 32.8508 33.4883C31.9263 33.4883 31.0018 33.332 30.0773 33.0195C29.1529 32.7201 28.3326 32.2708 27.6164 31.6719C26.0018 30.3177 25.1945 28.5404 25.1945 26.3398C25.1945 23.931 26.0799 22.0885 27.8508 20.8125C29.3091 19.7839 31.1841 19.2695 33.4758 19.2695C35.7674 19.2695 37.7076 19.9401 39.2961 21.2812C39.3352 20.8385 39.3547 20.2852 39.3547 19.6211C39.3547 18.957 39.2245 18.293 38.9641 17.6289C38.7036 16.9648 38.3326 16.4115 37.8508 15.9688C36.8612 15.0964 35.481 14.6602 33.7102 14.6602C32.1216 14.6602 30.507 15.0964 28.8664 15.9688C28.5539 16.138 28.2805 16.2227 28.0461 16.2227C27.6945 16.2227 27.356 15.8776 27.0305 15.1875C26.6789 14.4844 26.5031 13.9766 26.5031 13.6641C26.5031 13.0911 26.9328 12.5378 27.7922 12.0039C29.4328 10.9883 31.6268 10.4805 34.3742 10.4805C36.8742 10.4805 38.9445 11.1641 40.5852 12.5312C42.5253 14.1719 43.4953 16.4896 43.4953 19.4844C43.4953 20.8125 43.2805 22.4857 42.8508 24.5039C43.9576 27.6549 44.537 30.1419 44.5891 31.9648ZM31.5031 23.6836C30.9693 24.0742 30.5852 24.4648 30.3508 24.8555C30.1294 25.2461 30.0188 25.7083 30.0188 26.2422C30.0188 26.763 30.1099 27.2318 30.2922 27.6484C30.4875 28.0521 30.7544 28.3906 31.093 28.6641C31.8091 29.224 32.6099 29.5039 33.4953 29.5039C34.3938 29.5039 35.1294 29.3997 35.7023 29.1914C36.2753 28.9831 36.7701 28.7161 37.1867 28.3906C38.0852 27.6875 38.5344 26.9453 38.5344 26.1641C38.4563 25.1875 37.9159 24.4193 36.9133 23.8594C36.0148 23.3385 34.9536 23.0781 33.7297 23.0781C32.7792 23.0781 32.037 23.2799 31.5031 23.6836ZM52.0164 7.19922C51.131 7.19922 50.3758 6.89323 49.7508 6.28125C49.1258 5.68229 48.8133 4.92708 48.8133 4.01562C48.8133 3.13021 49.1258 2.375 49.7508 1.75C50.3497 1.15104 51.1049 0.851562 52.0164 0.851562C53.4096 0.851562 54.3862 1.48958 54.9461 2.76562C55.1154 3.14323 55.2 3.5599 55.2 4.01562C55.2 4.92708 54.8875 5.68229 54.2625 6.28125C53.6375 6.89323 52.8888 7.19922 52.0164 7.19922ZM54.3016 27.6289C54.3016 28.5534 54.6076 29.0156 55.2195 29.0156C55.4279 29.0156 55.6622 28.957 55.9227 28.8398C56.4305 28.6185 56.7755 28.5078 56.9578 28.5078C57.2313 28.5078 57.4526 28.6966 57.6219 29.0742L58.2273 30.4414C58.3315 30.6628 58.3836 30.8711 58.3836 31.0664C58.3836 31.6263 57.9018 32.1471 56.9383 32.6289C56.0268 33.0977 55.1219 33.332 54.2234 33.332C53.338 33.332 52.6284 33.2344 52.0945 33.0391C51.5607 32.8438 51.1049 32.5182 50.7273 32.0625C49.9721 31.125 49.5945 29.6016 49.5945 27.4922V12.2578C49.5945 11.8932 49.6987 11.5872 49.907 11.3398C50.1154 11.0924 50.3628 10.9688 50.6492 10.9688H53.2664C53.5659 10.9688 53.8133 11.0924 54.0086 11.3398C54.2039 11.5872 54.3016 11.8932 54.3016 12.2578V27.6289ZM62.393 12.375C62.393 11.4375 62.8422 10.9688 63.7406 10.9688H64.8148C65.544 10.9688 66.0388 11.2422 66.2992 11.7891C66.6638 12.5703 66.9763 13.599 67.2367 14.875C68.4086 12.7396 70.1534 11.3724 72.4711 10.7734C73.2003 10.5781 74.1052 10.4805 75.1859 10.4805C76.2797 10.4805 77.2888 10.7148 78.2133 11.1836C79.1378 11.6393 79.8669 12.2708 80.4008 13.0781C81.3904 14.5495 81.8852 16.7174 81.8852 19.582V31.7109C81.8852 32.0755 81.768 32.3815 81.5336 32.6289C81.2992 32.8763 80.9542 33 80.4984 33H78.5844C78.0896 33 77.725 32.8763 77.4906 32.6289C77.2563 32.3815 77.1391 32.0755 77.1391 31.7109V19.5625C77.1391 16.2292 75.9151 14.5625 73.4672 14.5625C72.0349 14.5625 70.7263 15.1615 69.5414 16.3594C68.2784 17.6484 67.6469 19.1458 67.6469 20.8516V31.7109C67.6469 32.0755 67.5362 32.3815 67.3148 32.6289C67.0935 32.8763 66.755 33 66.2992 33H64.2875C63.8318 33 63.4867 32.8763 63.2523 32.6289C63.018 32.3815 62.9008 32.0755 62.9008 31.7109V19.7188C62.9008 17.1016 62.8161 15.2786 62.6469 14.25C62.4776 13.2083 62.393 12.5833 62.393 12.375ZM100.367 13.9375C100.367 14.6667 99.957 15.0312 99.1367 15.0312H93.6289V27.2969C93.6289 28.625 94.2865 29.2891 95.6016 29.2891C96.4349 29.2891 97.5221 28.8724 98.8633 28.0391C99.1237 27.8698 99.4036 27.7852 99.7031 27.7852C100.016 27.7852 100.263 28 100.445 28.4297L100.895 29.4453C101.064 29.8359 101.148 30.168 101.148 30.4414C101.148 30.7148 100.94 31.0339 100.523 31.3984C100.12 31.75 99.599 32.069 98.9609 32.3555C97.5156 33.0065 96.207 33.332 95.0352 33.332C93.8633 33.332 92.9323 33.2148 92.2422 32.9805C91.5651 32.7331 90.9857 32.3685 90.5039 31.8867C89.4622 30.8711 88.9414 29.4062 88.9414 27.4922V15.0312H87.3008C86.4805 15.0312 86.0703 14.6602 86.0703 13.918V12.8047C86.0703 12.5052 86.1484 12.2708 86.3047 12.1016C86.4609 11.9323 86.7669 11.8021 87.2227 11.7109L89.1758 11.1445L89.918 6.55469C90.0612 5.69531 90.4128 5.26562 90.9727 5.26562H92.5938C92.8932 5.26562 93.1406 5.38932 93.3359 5.63672C93.5312 5.87109 93.6289 6.17708 93.6289 6.55469V10.9688H99.1367C99.957 10.9688 100.367 11.3268 100.367 12.043V13.9375ZM107.755 23.0586L107.736 23.4297C107.736 25.2135 108.302 26.6458 109.435 27.7266C110.62 28.8724 112.228 29.4453 114.259 29.4453C116.108 29.4453 117.827 28.8919 119.416 27.7852C119.715 27.5768 119.982 27.4727 120.216 27.4727C120.698 27.4727 121.063 27.7135 121.31 28.1953L121.838 29.2891C121.955 29.5495 122.013 29.8294 122.013 30.1289C122.013 30.4284 121.877 30.7409 121.603 31.0664C121.343 31.3789 120.998 31.6654 120.568 31.9258C120.138 32.1862 119.637 32.4141 119.064 32.6094C118.504 32.8047 117.925 32.9674 117.326 33.0977C116.128 33.3581 114.878 33.4883 113.576 33.4883C112.274 33.4883 110.959 33.2409 109.63 32.7461C108.315 32.2513 107.176 31.5286 106.213 30.5781C104.142 28.5599 103.107 25.832 103.107 22.3945C103.107 16.3659 105.229 12.6159 109.474 11.1445C110.802 10.6888 112.163 10.4609 113.556 10.4609C114.963 10.4609 116.154 10.6107 117.13 10.9102C118.12 11.2096 118.973 11.6523 119.689 12.2383C121.199 13.4753 121.955 15.2005 121.955 17.4141C121.955 19.5885 121.069 21.2487 119.298 22.3945C117.749 23.3971 115.705 23.8984 113.166 23.8984C111.603 23.8984 109.8 23.6185 107.755 23.0586ZM117.365 17.3555C117.365 15.4935 116.115 14.5625 113.615 14.5625C111.232 14.5625 109.565 15.4349 108.615 17.1797C108.276 17.7917 108.055 18.5469 107.951 19.4453C109.071 20.0052 110.496 20.2852 112.228 20.2852C115.653 20.2852 117.365 19.3086 117.365 17.3555ZM132.605 30.9102C133.829 30.3112 135.124 30.0117 136.491 30.0117C137.872 30.0117 139.096 30.1419 140.163 30.4023C141.244 30.6497 142.214 31.0469 143.073 31.5938C145.001 32.8177 145.964 34.5299 145.964 36.7305C145.964 39.0221 144.87 40.8646 142.683 42.2578C140.743 43.4818 138.412 44.0938 135.691 44.0938C132.917 44.0938 130.606 43.4948 128.757 42.2969C126.765 40.9948 125.769 39.224 125.769 36.9844C125.769 34.263 127.208 31.6328 130.085 29.0938C131.205 28.1172 132.442 27.2383 133.796 26.457C131.674 26.2617 129.864 25.513 128.366 24.2109C126.687 22.7396 125.847 20.9102 125.847 18.7227C125.847 16.2096 126.791 14.1719 128.679 12.6094C130.411 11.1901 132.474 10.4805 134.87 10.4805C137.448 10.4805 139.473 11.1771 140.945 12.5703C141.4 13 141.765 13.4883 142.038 14.0352C142.038 12.8372 141.882 11.6003 141.57 10.3242C141.27 9.03516 141.12 8.26693 141.12 8.01953C141.12 7.77214 141.166 7.57682 141.257 7.43359C141.361 7.27734 141.478 7.16016 141.609 7.08203C141.804 6.96484 142.025 6.90625 142.273 6.90625H143.952C145.033 6.90625 145.573 8.41016 145.573 11.418C145.573 13.8268 145.092 16.0469 144.128 18.0781C144.154 18.3646 144.167 18.7422 144.167 19.2109C144.167 19.6797 144.063 20.2266 143.855 20.8516C143.646 21.4766 143.366 22.0625 143.015 22.6094C142.676 23.1432 142.279 23.638 141.823 24.0938C141.381 24.5495 140.905 24.9727 140.398 25.3633C139.903 25.7539 139.402 26.112 138.894 26.4375C136.042 28.2474 134.336 29.3802 133.777 29.8359C133.217 30.2786 132.826 30.6367 132.605 30.9102ZM131.706 21.8477C132.149 22.2253 132.663 22.5182 133.249 22.7266C133.848 22.9219 134.48 23.0195 135.144 23.0195C135.821 23.0195 136.439 22.9219 136.999 22.7266C137.559 22.5182 138.054 22.2188 138.484 21.8281C139.395 21.0078 139.851 19.9531 139.851 18.6641C139.851 17.349 139.343 16.3138 138.327 15.5586C137.429 14.8945 136.322 14.5625 135.007 14.5625C132.924 14.5625 131.485 15.3372 130.691 16.8867C130.43 17.3945 130.3 17.987 130.3 18.6641C130.3 19.3281 130.424 19.9271 130.671 20.4609C130.918 20.9948 131.264 21.457 131.706 21.8477ZM130.769 34.5234C130.287 35.0703 130.046 35.6758 130.046 36.3398C130.046 37.0039 130.209 37.5703 130.534 38.0391C130.86 38.5078 131.29 38.8984 131.823 39.2109C132.852 39.7969 134.141 40.0898 135.691 40.0898C138.139 40.0898 139.844 39.4844 140.808 38.2734C141.12 37.8698 141.277 37.362 141.277 36.75C141.277 36.138 141.081 35.6172 140.691 35.1875C140.313 34.7578 139.838 34.4258 139.265 34.1914C138.314 33.8008 137.077 33.6055 135.554 33.6055C133.21 33.6055 131.615 33.9115 130.769 34.5234ZM153.235 23.0586L153.216 23.4297C153.216 25.2135 153.782 26.6458 154.915 27.7266C156.1 28.8724 157.708 29.4453 159.739 29.4453C161.588 29.4453 163.307 28.8919 164.895 27.7852C165.195 27.5768 165.462 27.4727 165.696 27.4727C166.178 27.4727 166.542 27.7135 166.79 28.1953L167.317 29.2891C167.434 29.5495 167.493 29.8294 167.493 30.1289C167.493 30.4284 167.356 30.7409 167.083 31.0664C166.822 31.3789 166.477 31.6654 166.048 31.9258C165.618 32.1862 165.117 32.4141 164.544 32.6094C163.984 32.8047 163.404 32.9674 162.805 33.0977C161.608 33.3581 160.358 33.4883 159.055 33.4883C157.753 33.4883 156.438 33.2409 155.11 32.7461C153.795 32.2513 152.656 31.5286 151.692 30.5781C149.622 28.5599 148.587 25.832 148.587 22.3945C148.587 16.3659 150.709 12.6159 154.954 11.1445C156.282 10.6888 157.643 10.4609 159.036 10.4609C160.442 10.4609 161.634 10.6107 162.61 10.9102C163.6 11.2096 164.453 11.6523 165.169 12.2383C166.679 13.4753 167.434 15.2005 167.434 17.4141C167.434 19.5885 166.549 21.2487 164.778 22.3945C163.229 23.3971 161.184 23.8984 158.645 23.8984C157.083 23.8984 155.279 23.6185 153.235 23.0586ZM162.845 17.3555C162.845 15.4935 161.595 14.5625 159.095 14.5625C156.712 14.5625 155.045 15.4349 154.095 17.1797C153.756 17.7917 153.535 18.5469 153.43 19.4453C154.55 20.0052 155.976 20.2852 157.708 20.2852C161.132 20.2852 162.845 19.3086 162.845 17.3555ZM172.225 12.375C172.225 11.4375 172.635 10.9688 173.455 10.9688H174.51C175.226 10.9688 175.734 11.2812 176.034 11.9062C176.463 12.8177 176.776 14.0742 176.971 15.6758C176.971 15.7018 176.978 15.7148 176.991 15.7148C177.017 15.7148 177.062 15.4935 177.127 15.0508C177.192 14.6081 177.381 14.0677 177.694 13.4297C178.006 12.7786 178.39 12.2318 178.846 11.7891C179.771 10.9167 180.903 10.4805 182.245 10.4805C183.742 10.4805 184.784 10.7279 185.37 11.2227C185.643 11.444 185.754 11.75 185.702 12.1406L185.389 14.6016C185.311 15.2656 184.972 15.5977 184.373 15.5977C184.087 15.5977 183.735 15.5391 183.319 15.4219C182.511 15.2135 181.873 15.1094 181.405 15.1094C180.936 15.1094 180.441 15.3177 179.92 15.7344C179.399 16.138 178.95 16.6458 178.573 17.2578C177.804 18.5339 177.42 19.8945 177.42 21.3398V31.7109C177.42 32.0755 177.316 32.3815 177.108 32.6289C176.899 32.8763 176.6 33 176.209 33H173.944C173.527 33 173.208 32.8763 172.987 32.6289C172.778 32.3815 172.674 32.0755 172.674 31.7109V18.2539C172.674 15.9622 172.596 14.4518 172.44 13.7227C172.297 12.9805 172.225 12.5312 172.225 12.375Z" fill="black"/>
</svg>
