<svg width="45" height="45" viewBox="0 0 45 45" fill="none" xmlns="http://www.w3.org/2000/svg">
<path d="M38.7567 6.92523C34.5095 2.49201 28.633 -0.00988512 22.4935 0.00141138C10.0864 -0.0142154 0.0156446 10.0311 1.78118e-05 22.4383C-0.00770147 28.5733 2.49391 34.4445 6.92383 38.6886C6.93673 38.7014 6.94153 38.7207 6.95433 38.732C7.08443 38.8573 7.22583 38.9634 7.35762 39.0839C7.71911 39.4052 8.0806 39.7378 8.46138 40.0479C8.66538 40.2086 8.87747 40.3692 9.08636 40.517C9.44625 40.7853 9.80614 41.0536 10.182 41.3011C10.4375 41.4617 10.701 41.6223 10.9628 41.783C11.3098 41.9919 11.6553 42.2023 12.0136 42.3935C12.3173 42.5542 12.6272 42.6923 12.9357 42.8385C13.2731 42.9992 13.6057 43.1598 13.9511 43.3044C14.2965 43.449 14.6436 43.5615 14.9938 43.6868C15.344 43.8121 15.6461 43.9278 15.9818 44.0306C16.361 44.1447 16.7498 44.233 17.1354 44.3278C17.4567 44.4065 17.7684 44.4965 18.0994 44.5608C18.5428 44.6492 18.9926 44.7053 19.4425 44.7664C19.7205 44.805 19.992 44.8596 20.2731 44.8869C21.009 44.9592 21.7512 44.9994 22.4998 44.9994C23.2485 44.9994 23.9908 44.9592 24.7266 44.8869C25.0077 44.8596 25.2792 44.805 25.5571 44.7664C26.007 44.7053 26.4568 44.6492 26.9003 44.5608C27.2216 44.4965 27.543 44.4001 27.8643 44.3278C28.2498 44.233 28.6386 44.1446 29.0178 44.0306C29.3536 43.9278 29.6781 43.8025 30.0059 43.6868C30.3337 43.5711 30.7064 43.4458 31.0486 43.3044C31.3907 43.163 31.7265 42.9975 32.0639 42.8385C32.3724 42.6923 32.6825 42.5541 32.9861 42.3935C33.3444 42.2023 33.6898 41.9918 34.0369 41.783C34.2987 41.6223 34.5622 41.4762 34.8176 41.3011C35.1936 41.0537 35.5535 40.7854 35.9133 40.517C36.1222 40.3563 36.3342 40.2117 36.5383 40.0479C36.9191 39.7426 37.2806 39.4181 37.642 39.0839C37.7737 38.9634 37.9151 38.8574 38.0453 38.732C38.0581 38.7208 38.063 38.7015 38.0758 38.6886C47.0353 30.1054 47.34 15.8844 38.7567 6.92523ZM35.1457 37.0065C34.8533 37.2636 34.5512 37.5078 34.246 37.744C34.0661 37.8822 33.8861 38.0187 33.7014 38.1505C33.4106 38.361 33.115 38.5601 32.8145 38.7513C32.596 38.8911 32.3727 39.026 32.1477 39.1578C31.8649 39.3185 31.5773 39.4791 31.2865 39.6398C31.0294 39.7715 30.7676 39.8953 30.5042 40.0174C30.2408 40.1395 29.9499 40.2696 29.6655 40.3837C29.3811 40.4978 29.0791 40.6054 28.7818 40.705C28.5103 40.7982 28.2388 40.8946 27.964 40.9765C27.6427 41.0729 27.307 41.1516 26.9744 41.232C26.7141 41.293 26.4571 41.3621 26.1936 41.4135C25.8128 41.4874 25.424 41.5388 25.0336 41.5918C24.8119 41.6207 24.5918 41.6609 24.3685 41.6834C23.7515 41.7428 23.1265 41.7782 22.4951 41.7782C21.8637 41.7782 21.2388 41.7429 20.6218 41.6834C20.3985 41.6609 20.1784 41.6207 19.9566 41.5918C19.5662 41.5388 19.1774 41.4874 18.7966 41.4135C18.5332 41.3621 18.2761 41.2931 18.0159 41.232C17.6833 41.1517 17.3523 41.0713 17.0262 40.9765C16.7515 40.8946 16.4799 40.7982 16.2084 40.705C15.9112 40.6022 15.614 40.4977 15.3248 40.3837C15.0356 40.2696 14.7625 40.1443 14.4861 40.0174C14.2097 39.8905 13.9607 39.7716 13.7037 39.6398C13.4129 39.4888 13.1253 39.3297 12.8425 39.1578C12.6176 39.0261 12.3943 38.8911 12.1758 38.7513C11.8754 38.5601 11.5797 38.361 11.2889 38.1505C11.1041 38.0188 10.9242 37.8822 10.7442 37.744C10.4389 37.5078 10.1369 37.262 9.84454 37.0065C9.77385 36.9535 9.70955 36.886 9.64055 36.8249C9.71238 31.3596 13.2234 26.5337 18.4015 24.7833C20.9905 26.0149 23.9965 26.0149 26.5856 24.7833C31.7635 26.5337 35.2746 31.3595 35.3465 36.8249C35.279 36.886 35.2147 36.9471 35.1457 37.0065ZM16.8911 12.883C18.6307 9.78927 22.5488 8.69153 25.6425 10.4311C28.7363 12.1707 29.834 16.0888 28.0944 19.1825C27.5173 20.209 26.6691 21.0572 25.6425 21.6344C25.6345 21.6344 25.6248 21.6344 25.6152 21.644C25.1891 21.8811 24.7389 22.0719 24.2721 22.2128C24.1886 22.2369 24.1114 22.269 24.0231 22.2899C23.8624 22.3317 23.6937 22.3606 23.5282 22.3895C23.2166 22.444 22.9013 22.4756 22.5851 22.4843H22.4019C22.0857 22.4756 21.7705 22.444 21.4589 22.3895C21.2982 22.3606 21.1279 22.3317 20.9641 22.2899C20.8789 22.269 20.8034 22.2369 20.7151 22.2128C20.2482 22.0719 19.798 21.8812 19.3719 21.644L19.343 21.6344C16.2493 19.8948 15.1515 15.9767 16.8911 12.883ZM38.1966 33.6391C37.1656 28.8303 33.999 24.7535 29.5948 22.5648C33.1951 18.6429 32.9343 12.545 29.0125 8.94466C25.0906 5.34438 18.9926 5.60514 15.3924 9.527C12.0077 13.214 12.0077 18.8779 15.3924 22.5648C10.9881 24.7536 7.82153 28.8303 6.79053 33.6391C0.629798 24.9612 2.67032 12.9321 11.3482 6.77141C20.0261 0.610669 32.0552 2.65119 38.2159 11.3291C40.5318 14.5912 41.775 18.4933 41.773 22.494C41.773 26.4911 40.5225 30.3882 38.1966 33.6391Z" fill="#18A0FB"/>
</svg>
